<svg xmlns="http://www.w3.org/2000/svg" width="16" height="16" viewBox="0 0 16 16">
  <!-- Approach C: Scalloped stamp with postal wavy cancellation lines (deprecated) -->
  <!-- Faded lines + X strike = cancelled/deprecated -->
  <g transform="translate(8,8) rotate(-10) translate(-8,-8)">
    <!-- Scalloped edge - faded -->
    <path d="
      M4.5,2.5
      C4.8,2 5.4,2 5.7,2.5 C6,2 6.6,2 6.9,2.5 C7.2,2 7.8,2 8.1,2.5
      C8.4,2 9,2 9.3,2.5 C9.6,2 10.2,2 10.5,2.5 C10.8,2 11.4,2 11.5,2.5
      C12,2.8 12,3.4 11.5,3.7 C12,4 12,4.6 11.5,4.9
      C12,5.2 12,5.8 11.5,6.1 C12,6.4 12,7 11.5,7.3
      C12,7.6 12,8.2 11.5,8.5 C12,8.8 12,9.4 11.5,9.7
      C12,10 12,10.6 11.5,10.9 C12,11.2 12,11.8 11.5,12 C12,12.3 12,12.7 11.5,13
      C11.2,13.5 10.6,13.5 10.3,13 C10,13.5 9.4,13.5 9.1,13
      C8.8,13.5 8.2,13.5 7.9,13 C7.6,13.5 7,13.5 6.7,13
      C6.4,13.5 5.8,13.5 5.5,13 C5.2,13.5 4.6,13.5 4.5,13
      C4,12.7 4,12.3 4.5,12 C4,11.8 4,11.2 4.5,10.9
      C4,10.6 4,10 4.5,9.7 C4,9.4 4,8.8 4.5,8.5
      C4,8.2 4,7.6 4.5,7.3 C4,7 4,6.4 4.5,6.1
      C4,5.8 4,5.2 4.5,4.9 C4,4.6 4,4 4.5,3.7 C4,3.4 4,2.8 4.5,2.5
      Z"
      fill="none" stroke="#6E6E6E" stroke-width="0.45" opacity="0.6"/>
    <!-- Wavy postal cancellation lines - faded -->
    <path d="M5.5,6.5 Q6.5,5.8 7.5,6.5 Q8.5,7.2 9.5,6.5 Q10.5,5.8 10.5,6.5"
      fill="none" stroke="#6E6E6E" stroke-width="0.35" opacity="0.35"/>
    <path d="M5.5,8 Q6.5,7.3 7.5,8 Q8.5,8.7 9.5,8 Q10.5,7.3 10.5,8"
      fill="none" stroke="#6E6E6E" stroke-width="0.35" opacity="0.35"/>
    <path d="M5.5,9.5 Q6.5,8.8 7.5,9.5 Q8.5,10.2 9.5,9.5 Q10.5,8.8 10.5,9.5"
      fill="none" stroke="#6E6E6E" stroke-width="0.35" opacity="0.35"/>
    <!-- Diagonal strikethrough -->
    <line x1="4.5" y1="12.5" x2="11.5" y2="3" stroke="#6E6E6E" stroke-width="0.35" stroke-linecap="round" opacity="0.8"/>
  </g>
</svg>
