<svg xmlns="http://www.w3.org/2000/svg" width="16" height="16" viewBox="0 0 16 16">
  <!-- Approach B: Perforation dots + rect with status badge overlay (deprecated) -->
  <g transform="translate(8,8) rotate(-10) translate(-8,-8)">
    <!-- Stamp body -->
    <rect x="3.5" y="2.5" width="9" height="11" rx="0.3" fill="none" stroke="#6E6E6E" stroke-width="0.45"/>
    <!-- Perforation dots - top -->
    <circle cx="3.5" cy="2.5" r="0.5" fill="#6E6E6E"/>
    <circle cx="5.75" cy="2.5" r="0.5" fill="#6E6E6E"/>
    <circle cx="8" cy="2.5" r="0.5" fill="#6E6E6E"/>
    <circle cx="10.25" cy="2.5" r="0.5" fill="#6E6E6E"/>
    <circle cx="12.5" cy="2.5" r="0.5" fill="#6E6E6E"/>
    <!-- Perforation dots - bottom -->
    <circle cx="3.5" cy="13.5" r="0.5" fill="#6E6E6E"/>
    <circle cx="5.75" cy="13.5" r="0.5" fill="#6E6E6E"/>
    <circle cx="8" cy="13.5" r="0.5" fill="#6E6E6E"/>
    <circle cx="10.25" cy="13.5" r="0.5" fill="#6E6E6E"/>
    <circle cx="12.5" cy="13.5" r="0.5" fill="#6E6E6E"/>
    <!-- Perforation dots - left -->
    <circle cx="3.5" cy="5.25" r="0.5" fill="#6E6E6E"/>
    <circle cx="3.5" cy="8" r="0.5" fill="#6E6E6E"/>
    <circle cx="3.5" cy="10.75" r="0.5" fill="#6E6E6E"/>
    <!-- Perforation dots - right -->
    <circle cx="12.5" cy="5.25" r="0.5" fill="#6E6E6E"/>
    <circle cx="12.5" cy="8" r="0.5" fill="#6E6E6E"/>
    <circle cx="12.5" cy="10.75" r="0.5" fill="#6E6E6E"/>
    <!-- Horizontal lines suggesting text/content -->
    <line x1="5" y1="5.5" x2="11" y2="5.5" stroke="#6E6E6E" stroke-width="0.3" opacity="0.4"/>
    <line x1="5" y1="7" x2="11" y2="7" stroke="#6E6E6E" stroke-width="0.3" opacity="0.4"/>
    <line x1="5" y1="8.5" x2="11" y2="8.5" stroke="#6E6E6E" stroke-width="0.3" opacity="0.4"/>
  </g>
  <!-- Status badge: X mark (deprecated) -->
  <circle cx="12.5" cy="12.5" r="2" fill="#6E6E6E" opacity="0.9"/>
  <line x1="11.5" y1="11.5" x2="13.5" y2="13.5" stroke="white" stroke-width="0.7" stroke-linecap="round"/>
  <line x1="13.5" y1="11.5" x2="11.5" y2="13.5" stroke="white" stroke-width="0.7" stroke-linecap="round"/>
</svg>
